<mxfile host="app.diagrams.net" modified="2023-07-14T15:53:28.527Z" agent="Mozilla/5.0 (Windows NT 10.0; Win64; x64) AppleWebKit/537.36 (KHTML, like Gecko) Chrome/114.0.0.0 Safari/537.36" version="21.6.2" etag="CWZU4T1XmBF8EndxqG61" type="github">
  <diagram name="Page-1" id="lLiNNvSxMgp1m489HLiG">
    <mxGraphModel>
      <root>
        <mxCell id="0" />
        <mxCell id="1" parent="0" />
      </root>
    </mxGraphModel>
  </diagram>
</mxfile>
